<?xml version="1.0" encoding="UTF-8"?>
<svg version="1.1" viewBox="0 0 696 696" xmlns="http://www.w3.org/2000/svg"><path d="m413.63 310.11c-16.568-28.697-6.7365-65.391 21.96-81.961 28.698-16.569 65.393-6.736 81.962 21.962s6.7361 65.393-21.962 81.962c-28.697 16.568-65.392 6.7344-81.96-21.963zm-71.612-214.04a252 252 0 0 0-237.42 186.71 252 252 0 0 0 178.19 308.64 252 252 0 0 0 308.63-178.19 252 252 0 0 0 8.2363-53.373c-13.198 22.24-32.084 41.516-56.074 55.367-14.003 8.5688-23.81 18.686-27.74 33.746-3.8461 14.738-12.295 23.952-25.742 25.656-0.1028 0.012-0.2061 0.0266-0.3086 0.0391-7.9682 0.9836-15.973 1.4734-23.969 1.4765-8.0984 3e-3 -16.188-0.49386-24.217-1.4863-10.977-1.3569-18.711-7.8299-23.258-18.252-0.9803-2.2471-1.8167-4.6828-2.5117-7.3008-3.9943-15.048-13.838-25.126-27.875-33.637-6.4725-3.4849-12.723-6.0513-19.066-7.4882-7.7665-1.7613-15.808-1.8483-24.072 0.42578-14.694 4.0438-26.893 1.334-35.055-9.3692-4.9057-6.4333-9.4156-13.169-13.498-20.17-0.14195-0.24725-0.28516-0.49331-0.42771-0.74022l-0.4277-0.74219c-4.0218-7.0359-7.6003-14.309-10.719-21.773-5.1883-12.42-1.4352-24.339 9.4141-35.043 6.1014-6.0197 10.046-13.026 12.404-20.633 1.9274-6.2122 2.8305-12.91 3.0488-20.258-0.35143-16.412-4.159-29.976-15.193-40.959-1.9198-1.9108-3.6105-3.8536-5.0664-5.8261-6.7522-9.1486-8.491-19.083-4.1777-29.268 3.1549-7.4494 6.7684-14.703 10.82-21.715 4.0004-6.9227 8.4278-13.609 13.264-20.018 0.0618-0.083 0.12732-0.16588 0.18945-0.24806 8.1993-10.793 20.403-13.503 35.09-9.4648 15.008 4.1264 28.671 0.69039 43.094-7.1524 23.991-13.851 50.129-20.568 75.988-20.877a252 252 0 0 0-50.34-19.553 252 252 0 0 0-71.221-8.5156zm5.9973-96.072a348 348 0 0 0-348 348 348 348 0 0 0 348 348 348 348 0 0 0 348-348 348 348 0 0 0-348-348zm0 48a300 300 0 0 1 300 300 300 300 0 0 1-300 300 300 300 0 0 1-300-300 300 300 0 0 1 300-300z" fill="#fff"/></svg>
